<mxfile host="app.diagrams.net" modified="2024-01-09T09:09:34.004Z" agent="Mozilla/5.0 (Macintosh; Intel Mac OS X 10_15_7) AppleWebKit/537.36 (KHTML, like Gecko) Chrome/120.0.0.0 Safari/537.36" etag="3sbliy9x3QsKRxKD_tJO" version="22.1.17" type="github">
  <diagram name="menus" id="C-jYXIoTOcxqAW46k9Y1">
    <mxGraphModel dx="954" dy="696" grid="1" gridSize="10" guides="1" tooltips="1" connect="1" arrows="1" fold="1" page="1" pageScale="1" pageWidth="1169" pageHeight="827" math="0" shadow="0">
      <root>
        <mxCell id="0" />
        <mxCell id="1" parent="0" />
        <mxCell id="tMLiEnjQ_pg0QaTbAvHz-10" value="Restaurants" style="strokeColor=inherit;fillColor=inherit;gradientColor=inherit;fontColor=inherit;html=1;shadow=0;dashed=0;perimeter=none;whiteSpace=wrap;resizeWidth=1;align=left;spacing=10;" vertex="1" parent="1">
          <mxGeometry x="280" y="220" width="200" height="30" as="geometry" />
        </mxCell>
        <mxCell id="tMLiEnjQ_pg0QaTbAvHz-8" value="Menus" style="strokeColor=inherit;fillColor=inherit;gradientColor=inherit;fontColor=inherit;html=1;shadow=0;dashed=0;perimeter=none;whiteSpace=wrap;resizeWidth=1;align=left;spacing=10;" vertex="1" parent="1">
          <mxGeometry x="280" y="250" width="200" height="30" as="geometry" />
        </mxCell>
        <mxCell id="tMLiEnjQ_pg0QaTbAvHz-2" value="Waiter" style="html=1;shadow=0;dashed=0;shape=mxgraph.bootstrap.topButton;strokeColor=inherit;fillColor=#F7F7F7;rSize=5;perimeter=none;whiteSpace=wrap;resizeWidth=1;align=left;spacing=10;" vertex="1" parent="1">
          <mxGeometry x="280" y="130" width="200" height="30" as="geometry" />
        </mxCell>
        <mxCell id="tMLiEnjQ_pg0QaTbAvHz-12" value="All orders" style="strokeColor=inherit;fillColor=inherit;gradientColor=inherit;fontColor=inherit;html=1;shadow=0;dashed=0;perimeter=none;whiteSpace=wrap;resizeWidth=1;align=left;spacing=10;" vertex="1" parent="1">
          <mxGeometry x="280" y="190" width="200" height="30" as="geometry" />
        </mxCell>
        <mxCell id="tMLiEnjQ_pg0QaTbAvHz-13" value="Kitchen" style="strokeColor=inherit;fillColor=inherit;gradientColor=inherit;fontColor=inherit;html=1;shadow=0;dashed=0;perimeter=none;whiteSpace=wrap;resizeWidth=1;align=left;spacing=10;" vertex="1" parent="1">
          <mxGeometry x="280" y="160" width="200" height="30" as="geometry" />
        </mxCell>
      </root>
    </mxGraphModel>
  </diagram>
</mxfile>
